<svg xmlns="http://www.w3.org/2000/svg" viewBox="0 0 128 128"><title>icon19.2</title><g id="love_tart" data-name="love tart"><path d="M107.96,96.04c.01-.06.01-28.04.01-28.04A11.993,11.993,0,0,0,96.98,56.05V34.75a12.01,12.01,0,0,0-12-12H77.44a14.746,14.746,0,0,0,3.02-3.4,10.469,10.469,0,0,0,.99-8.97A8.717,8.717,0,0,0,75.8,5.09c-4.76-1.54-8.291,1.859-10.87,4.33-.8.771-1.066.722-1.88-.06-2.519-2.421-5.93-5.79-10.78-4.28a8.7,8.7,0,0,0-5.68,5.02,10.774,10.774,0,0,0,.96,9.19,13.653,13.653,0,0,0,3,3.46H43.02a12.01,12.01,0,0,0-12,12v21.3A11.993,11.993,0,0,0,20.03,68s.01,28.42.03,28.7c-8.39,2.98-12.64,6.69-12.64,11.01,0,11.12,29.67,17.11,57.58,17.11s57.58-5.99,57.58-17.11C122.58,103.12,117.53,99.1,107.96,96.04ZM50.3,11.59A4.73,4.73,0,0,1,53.45,8.9c2.41-.74,4.18.76,6.81,3.32.53.52,1.05,1.02,1.56,1.47a3.323,3.323,0,0,0,4.4,0c.48-.42.98-.9,1.48-1.38,2.65-2.55,4.56-4.16,6.87-3.41a4.707,4.707,0,0,1,3.13,2.88,6.423,6.423,0,0,1-.67,5.51c-.88,1.47-3.14,3.4-6.37,5.46H57.32c-4.37-2.75-5.81-4.56-6.27-5.4A6.85,6.85,0,0,1,50.3,11.59ZM35.02,34.75a8,8,0,0,1,8-8H84.98a8,8,0,0,1,8,8v7.28a11.34,11.34,0,0,1-4.85-1.38l-6.35-3.5a15.367,15.367,0,0,0-15.88.64L56,44.31a11.353,11.353,0,0,1-10.67,1L35.02,40.98Zm0,10.57,8.76,3.67A15.3,15.3,0,0,0,58.2,47.65l9.9-6.52a11.378,11.378,0,0,1,11.76-.47l6.35,3.49a15.076,15.076,0,0,0,6.77,1.87V56.17H35.02ZM24.03,68a8.022,8.022,0,0,1,6.99-7.94A8.428,8.428,0,0,1,32.03,60H95.97a8.428,8.428,0,0,1,1.01.06A8.022,8.022,0,0,1,103.97,68V79.08l-14.55,6.1a11.346,11.346,0,0,1-10.67-.99l-9.91-6.52a15.336,15.336,0,0,0-15.88-.64l-6.35,3.49a11.332,11.332,0,0,1-8.03,1.12L24.03,78.31Zm0,14.42,13.66,3.12a15.338,15.338,0,0,0,10.85-1.51l6.35-3.49A11.337,11.337,0,0,1,66.64,81l9.9,6.53a15.4,15.4,0,0,0,14.43,1.34l13-5.45V95.86a8.249,8.249,0,0,1-2.08,5.37,7.556,7.556,0,0,1-5.92,2.63H32.03a8.716,8.716,0,0,1-2.67-.47,8.082,8.082,0,0,1-4.09-3.28,8.381,8.381,0,0,1-1.24-4.25ZM65,120.82c-33.19,0-53.58-7.63-53.58-13.11,0-1.78,2.56-4.52,9.59-7.1a11.4,11.4,0,0,0,1.63,2.72,12.113,12.113,0,0,0,5.31,3.82,12.848,12.848,0,0,0,4.08.71H95.97a12.057,12.057,0,0,0,7.24-2.43c3.46-2.934,3.92-5.16,4.02-5.43,8.32,2.73,11.35,5.73,11.35,7.71C118.58,113.19,98.19,120.82,65,120.82Z"/></g></svg>